<svg xmlns="http://www.w3.org/2000/svg" width="64" height="64" fill="none" viewBox="0 0 64 64">
  <rect width="64" height="64" rx="14" fill="#111827"/>
  <path fill="url(#a)" d="M32 7 52 15v14.2c0 12.9-8.2 22-20 26.8-11.8-4.8-20-13.9-20-26.8V15L32 7Z"/>
  <path fill="#111827" fill-opacity=".18" d="M32 12.5 47.5 18.7v10.7c0 9.7-5.9 16.9-15.5 21.3-9.6-4.4-15.5-11.6-15.5-21.3V18.7L32 12.5Z"/>
  <path fill="#CFFAFE" d="M19 23a6 6 0 0 1 6-6h11a6 6 0 0 1 6 6v5a6 6 0 0 1-6 6h-6l-6.7 5.3a1.5 1.5 0 0 1-2.3-1.2v-5A6 6 0 0 1 19 28.7V23Z"/>
  <path fill="#164E63" d="M25 23.3a2 2 0 1 1 4 0 2 2 0 0 1-4 0Zm7.5 0a2 2 0 1 1 4 0 2 2 0 0 1-4 0Zm-7.5 6a1.8 1.8 0 0 1 1.8-1.8h9.7a1.8 1.8 0 1 1 0 3.5h-9.7a1.8 1.8 0 0 1-1.8-1.8Z"/>
  <path stroke="#ECFEFF" stroke-linecap="round" stroke-linejoin="round" stroke-width="4" d="m38 28 5.5 5.5L33 44"/>
  <defs>
    <linearGradient id="a" x1="12" x2="52" y1="7" y2="56" gradientUnits="userSpaceOnUse">
      <stop stop-color="#164E63"/>
      <stop offset=".58" stop-color="#06B6D4"/>
      <stop offset="1" stop-color="#F59E0B"/>
    </linearGradient>
  </defs>
</svg>
